<svg width="32" height="33" viewBox="0 0 32 33" fill="none" xmlns="http://www.w3.org/2000/svg">
<path id="Vector" d="M16.0036 7.95801C11.4632 7.95801 7.801 11.6974 7.801 16.3333C7.801 20.9693 11.4632 24.7087 16.0036 24.7087C20.5439 24.7087 24.2061 20.9693 24.2061 16.3333C24.2061 11.6974 20.5439 7.95801 16.0036 7.95801ZM16.0036 21.7784C13.0695 21.7784 10.6708 19.3365 10.6708 16.3333C10.6708 13.3302 13.0624 10.8883 16.0036 10.8883C18.9448 10.8883 21.3363 13.3302 21.3363 16.3333C21.3363 19.3365 18.9376 21.7784 16.0036 21.7784ZM26.4549 7.61542C26.4549 8.70151 25.5982 9.56893 24.5417 9.56893C23.478 9.56893 22.6284 8.69422 22.6284 7.61542C22.6284 6.53661 23.4851 5.66191 24.5417 5.66191C25.5982 5.66191 26.4549 6.53661 26.4549 7.61542ZM31.8876 9.59809C31.7662 6.98126 31.1808 4.66328 29.3033 2.7535C27.4329 0.843728 25.1627 0.246011 22.5999 0.114805C19.9585 -0.0382684 12.0415 -0.0382684 9.40011 0.114805C6.8444 0.238722 4.57423 0.836439 2.69671 2.74622C0.819186 4.65599 0.240937 6.97397 0.112437 9.5908C-0.0374791 12.2878 -0.0374791 20.3716 0.112437 23.0686C0.233798 25.6854 0.819186 28.0034 2.69671 29.9132C4.57423 31.8229 6.83726 32.4207 9.40011 32.5519C12.0415 32.7049 19.9585 32.7049 22.5999 32.5519C25.1627 32.4279 27.4329 31.8302 29.3033 29.9132C31.1737 28.0034 31.7591 25.6854 31.8876 23.0686C32.0375 20.3716 32.0375 12.2951 31.8876 9.59809ZM28.4752 25.9624C27.9184 27.3911 26.8404 28.4918 25.434 29.0676C23.3281 29.9205 18.3308 29.7236 16.0036 29.7236C13.6763 29.7236 8.67195 29.9132 6.57312 29.0676C5.1739 28.4991 4.09593 27.3984 3.53196 25.9624C2.69671 23.8121 2.88946 18.7096 2.88946 16.3333C2.88946 13.957 2.70385 8.8473 3.53196 6.70427C4.08879 5.27558 5.16676 4.1749 6.57312 3.59906C8.67909 2.74622 13.6763 2.94302 16.0036 2.94302C18.3308 2.94302 23.3352 2.7535 25.434 3.59906C26.8332 4.16761 27.9112 5.26829 28.4752 6.70427C29.3104 8.85459 29.1177 13.957 29.1177 16.3333C29.1177 18.7096 29.3104 23.8194 28.4752 25.9624Z" fill="#010101"/>
</svg>
